<svg width="708" height="48" viewBox="0 0 708 48" fill="none" xmlns="http://www.w3.org/2000/svg">
<rect x="48" y="21" width="180" height="6" fill="#98042D"/>
<rect x="264" y="21" width="180" height="6" fill="#FCC0C5"/>
<rect x="480" y="21" width="180" height="6" fill="#FCC0C5"/>
<rect width="48" height="48" rx="6" fill="#98042D"/>
<rect x="660" width="48" height="48" rx="6" fill="white"/>
<rect x="228" width="48" height="48" rx="6" fill="#98042D"/>
<rect x="444" width="48" height="48" rx="6" fill="white"/>
<path d="M29 30C29.5304 30 30.0391 30.2107 30.4142 30.5858C30.7893 30.9609 31 31.4696 31 32C31 32.5304 30.7893 33.0391 30.4142 33.4142C30.0391 33.7893 29.5304 34 29 34C28.4696 34 27.9609 33.7893 27.5858 33.4142C27.2107 33.0391 27 32.5304 27 32C27 30.89 27.89 30 29 30ZM13 14H16.27L17.21 16H32C32.2652 16 32.5196 16.1054 32.7071 16.2929C32.8946 16.4804 33 16.7348 33 17C33 17.17 32.95 17.34 32.88 17.5L29.3 23.97C28.96 24.58 28.3 25 27.55 25H20.1L19.2 26.63L19.17 26.75C19.17 26.8163 19.1963 26.8799 19.2432 26.9268C19.2901 26.9737 19.3537 27 19.42 27H31V29H19C18.4696 29 17.9609 28.7893 17.5858 28.4142C17.2107 28.0391 17 27.5304 17 27C17 26.65 17.09 26.32 17.24 26.04L18.6 23.59L15 16H13V14ZM19 30C19.5304 30 20.0391 30.2107 20.4142 30.5858C20.7893 30.9609 21 31.4696 21 32C21 32.5304 20.7893 33.0391 20.4142 33.4142C20.0391 33.7893 19.5304 34 19 34C18.4696 34 17.9609 33.7893 17.5858 33.4142C17.2107 33.0391 17 32.5304 17 32C17 30.89 17.89 30 19 30ZM28 23L30.78 18H18.14L20.5 23H28Z" fill="white"/>
<path d="M251 21H253V19H251M252 32C247.59 32 244 28.41 244 24C244 19.59 247.59 16 252 16C256.41 16 260 19.59 260 24C260 28.41 256.41 32 252 32ZM252 14C250.687 14 249.386 14.2587 248.173 14.7612C246.96 15.2638 245.858 16.0003 244.929 16.9289C243.054 18.8043 242 21.3478 242 24C242 26.6522 243.054 29.1957 244.929 31.0711C245.858 31.9997 246.96 32.7362 248.173 33.2388C249.386 33.7413 250.687 34 252 34C254.652 34 257.196 32.9464 259.071 31.0711C260.946 29.1957 262 26.6522 262 24C262 22.6868 261.741 21.3864 261.239 20.1732C260.736 18.9599 260 17.8575 259.071 16.9289C258.142 16.0003 257.04 15.2638 255.827 14.7612C254.614 14.2587 253.313 14 252 14ZM251 29H253V23H251V29Z" fill="white"/>
</svg>
