<svg width="24" height="24" viewBox="0 0 24 24" fill="none" xmlns="http://www.w3.org/2000/svg">
<path d="M2.40002 8.10005C2.40002 7.22483 2.7477 6.38547 3.36657 5.7666C3.98544 5.14773 4.82481 4.80005 5.70002 4.80005H18.3C19.1752 4.80005 20.0146 5.14773 20.6335 5.7666C21.2523 6.38547 21.6 7.22483 21.6 8.10005V15.9C21.6 16.7753 21.2523 17.6146 20.6335 18.2335C20.0146 18.8524 19.1752 19.2 18.3 19.2H5.70002C4.82481 19.2 3.98544 18.8524 3.36657 18.2335C2.7477 17.6146 2.40002 16.7753 2.40002 15.9V8.10005ZM3.60002 12V15.9C3.60002 17.0592 4.54082 18 5.70002 18H8.40002V12.8484L6.42482 14.8248C6.31216 14.9375 6.15936 15.0008 6.00002 15.0008C5.84069 15.0008 5.68789 14.9375 5.57522 14.8248C5.46256 14.7122 5.39927 14.5594 5.39927 14.4C5.39927 14.2407 5.46256 14.0879 5.57522 13.9752L7.55162 12H3.60002ZM5.12162 10.8C4.85751 10.3425 4.75174 9.81062 4.82071 9.28685C4.88969 8.76308 5.12955 8.2767 5.50311 7.90314C5.87667 7.52958 6.36305 7.28971 6.88682 7.22074C7.41059 7.15176 7.94249 7.25753 8.40002 7.52165V6.00005H5.70002C5.14307 6.00005 4.60893 6.2213 4.2151 6.61512C3.82127 7.00895 3.60002 7.54309 3.60002 8.10005V10.8H5.12162ZM7.20002 10.8H8.40002V9.60005C8.40002 9.36271 8.32965 9.1307 8.19779 8.93336C8.06593 8.73603 7.87852 8.58222 7.65924 8.49139C7.43997 8.40057 7.19869 8.3768 6.96592 8.42311C6.73314 8.46941 6.51932 8.5837 6.3515 8.75152C6.18367 8.91934 6.06938 9.13316 6.02308 9.36594C5.97678 9.59872 6.00054 9.84 6.09137 10.0593C6.18219 10.2785 6.336 10.466 6.53334 10.5978C6.73068 10.7297 6.96269 10.8 7.20002 10.8ZM9.60002 9.60005V10.8H10.8C11.0374 10.8 11.2694 10.7297 11.4667 10.5978C11.664 10.466 11.8179 10.2785 11.9087 10.0593C11.9995 9.84 12.0233 9.59872 11.977 9.36594C11.9307 9.13316 11.8164 8.91934 11.6486 8.75152C11.4807 8.5837 11.2669 8.46941 11.0341 8.42311C10.8014 8.3768 10.5601 8.40057 10.3408 8.49139C10.1215 8.58222 9.93412 8.73603 9.80226 8.93336C9.6704 9.1307 9.60002 9.36271 9.60002 9.60005ZM12.8784 10.8H20.4V8.10005C20.4 7.54309 20.1788 7.00895 19.7849 6.61512C19.3911 6.2213 18.857 6.00005 18.3 6.00005H9.60002V7.52165C10.0576 7.25753 10.5895 7.15176 11.1132 7.22074C11.637 7.28971 12.1234 7.52958 12.4969 7.90314C12.8705 8.2767 13.1104 8.76308 13.1793 9.28685C13.2483 9.81062 13.1425 10.3425 12.8784 10.8ZM10.4484 12L12.4248 13.9752C12.5375 14.0879 12.6008 14.2407 12.6008 14.4C12.6008 14.5594 12.5375 14.7122 12.4248 14.8248C12.3122 14.9375 12.1594 15.0008 12 15.0008C11.8407 15.0008 11.6879 14.9375 11.5752 14.8248L9.60002 12.8484V18H18.3C18.857 18 19.3911 17.7788 19.7849 17.385C20.1788 16.9911 20.4 16.457 20.4 15.9V12H10.4484Z" fill="#1E1E1E"/>
</svg>
