<svg width="40" height="40" viewBox="0 0 40 40" fill="none" xmlns="http://www.w3.org/2000/svg">
<path d="M17.5166 6.10832C17.8293 5.75915 18.212 5.47983 18.6399 5.2886C19.0678 5.09737 19.5313 4.99854 19.9999 4.99854C20.4686 4.99854 20.9321 5.09737 21.36 5.2886C21.7879 5.47983 22.1706 5.75915 22.4833 6.10832L23.6499 7.41165C23.9834 7.78415 24.3963 8.07687 24.8582 8.26815C25.3201 8.45942 25.8191 8.54435 26.3183 8.51665L28.0683 8.41999C28.5363 8.39418 29.0046 8.4674 29.4425 8.63486C29.8803 8.80231 30.2779 9.06024 30.6093 9.3918C30.9407 9.72336 31.1985 10.1211 31.3657 10.559C31.533 10.997 31.606 11.4653 31.5799 11.9333L31.4833 13.6817C31.4558 14.1805 31.5409 14.6792 31.7322 15.1408C31.9234 15.6024 32.216 16.0151 32.5883 16.3483L33.8916 17.515C34.2411 17.8276 34.5206 18.2105 34.712 18.6386C34.9034 19.0666 35.0023 19.5303 35.0023 19.9992C35.0023 20.4681 34.9034 20.9317 34.712 21.3597C34.5206 21.7878 34.2411 22.1707 33.8916 22.4833L32.5883 23.65C32.2158 23.9834 31.9231 24.3964 31.7318 24.8583C31.5405 25.3202 31.4556 25.8192 31.4833 26.3183L31.5799 28.0683C31.6057 28.5364 31.5325 29.0046 31.3651 29.4425C31.1976 29.8804 30.9397 30.278 30.6081 30.6094C30.2766 30.9408 29.8788 31.1985 29.4409 31.3658C29.003 31.533 28.5347 31.606 28.0666 31.58L26.3183 31.4833C25.8194 31.4559 25.3207 31.5409 24.8591 31.7322C24.3975 31.9235 23.9849 32.2161 23.6516 32.5883L22.4849 33.8917C22.1723 34.2411 21.7894 34.5207 21.3614 34.712C20.9333 34.9034 20.4697 35.0024 20.0008 35.0024C19.5319 35.0024 19.0682 34.9034 18.6402 34.712C18.2121 34.5207 17.8293 34.2411 17.5166 33.8917L16.3499 32.5883C16.0165 32.2158 15.6036 31.9231 15.1417 31.7318C14.6798 31.5406 14.1808 31.4556 13.6816 31.4833L11.9316 31.58C11.4635 31.6058 10.9953 31.5326 10.5574 31.3651C10.1196 31.1977 9.72196 30.9397 9.39055 30.6082C9.05915 30.2766 8.80141 29.8789 8.63416 29.4409C8.46691 29.003 8.39392 28.5347 8.41994 28.0667L8.51661 26.3183C8.54406 25.8194 8.459 25.3208 8.26773 24.8592C8.07646 24.3976 7.78388 23.9849 7.41161 23.6517L6.10827 22.485C5.75883 22.1723 5.47927 21.7895 5.28788 21.3614C5.09649 20.9333 4.99756 20.4697 4.99756 20.0008C4.99756 19.5319 5.09649 19.0683 5.28788 18.6402C5.47927 18.2122 5.75883 17.8293 6.10827 17.5167L7.41161 16.35C7.7841 16.0166 8.07682 15.6036 8.2681 15.1417C8.45938 14.6798 8.54431 14.1808 8.51661 13.6817L8.41994 11.9317C8.39438 11.4637 8.46778 10.9956 8.63534 10.558C8.80291 10.1203 9.06088 9.72293 9.39241 9.39171C9.72394 9.06049 10.1216 8.8029 10.5594 8.63575C10.9972 8.4686 11.4654 8.39565 11.9333 8.42165L13.6816 8.51832C14.1805 8.54577 14.6792 8.46071 15.1408 8.26944C15.6023 8.07817 16.015 7.78559 16.3483 7.41332L17.5166 6.10832Z" stroke="#1E1E1E" stroke-width="1.66667"/>
<path d="M15.8333 15.8334H15.8499V15.85H15.8333V15.8334ZM24.1666 24.1667H24.1833V24.1834H24.1666V24.1667Z" stroke="#1E1E1E" stroke-width="2.5" stroke-linejoin="round"/>
<path d="M25 15L15 25" stroke="#1E1E1E" stroke-width="1.66667" stroke-linecap="round" stroke-linejoin="round"/>
</svg>
