<svg width="70" height="24" viewBox="0 0 70 24" fill="none" xmlns="http://www.w3.org/2000/svg">
<path d="M13.0023 8L14.6111 10.8282L17.8826 11.438L15.6056 13.7952L16.0188 16.9993L13.0023 15.6283L9.98657 16.9993L10.3998 13.7952L8.12207 11.4373L11.3936 10.8275L13.0023 8Z" fill="#FFD800"/>
<path d="M26.0023 8L27.6111 10.8282L30.8826 11.438L28.6056 13.7952L29.0188 16.9993L26.0023 15.6283L22.9866 16.9993L23.3998 13.7952L21.1221 11.4373L24.3936 10.8275L26.0023 8Z" fill="#FFD800"/>
<path d="M39.0023 8L40.6111 10.8282L43.8826 11.438L41.6056 13.7952L42.0188 16.9993L39.0023 15.6283L35.9866 16.9993L36.3998 13.7952L34.1221 11.4373L37.3936 10.8275L39.0023 8Z" fill="#FFD800"/>
<path d="M52.0023 8L53.6111 10.8282L56.8826 11.438L54.6056 13.7952L55.0188 16.9993L52.0023 15.6283L48.9866 16.9993L49.3998 13.7952L47.1221 11.4373L50.3936 10.8275L52.0023 8Z" fill="#FFD800"/>
<path d="M65.0023 8L66.6111 10.8282L69.8826 11.438L67.6056 13.7952L68.0188 16.9993L65.0023 15.6283L61.9866 16.9993L62.3998 13.7952L60.1221 11.4373L63.3936 10.8275L65.0023 8Z" fill="#FFD800"/>
</svg>
