<svg width="24" height="24" viewBox="0 0 24 24" fill="none" xmlns="http://www.w3.org/2000/svg">
<path d="M4 16.577V18.385C4 18.5383 4.064 18.6793 4.192 18.808C4.32 18.9366 4.461 19.0006 4.615 19H19.385C19.5383 19 19.6793 18.936 19.808 18.808C19.9367 18.68 20.0007 18.539 20 18.385V16.577H4ZM4.616 7.03896H7.95C7.86667 6.88896 7.79667 6.73063 7.74 6.56396C7.68267 6.3973 7.654 6.2223 7.654 6.03896C7.654 5.4743 7.84633 4.99963 8.231 4.61496C8.61567 4.23096 9.09 4.03896 9.654 4.03896C9.99267 4.03896 10.3057 4.12763 10.593 4.30496C10.8803 4.4823 11.1313 4.7023 11.346 4.96496L11.961 5.80796L12.577 4.96496C12.787 4.69363 13.038 4.4713 13.33 4.29796C13.622 4.12463 13.9363 4.03796 14.273 4.03796C14.8343 4.03796 15.3077 4.2303 15.693 4.61496C16.077 4.99963 16.269 5.4743 16.269 6.03896C16.269 6.2223 16.2437 6.3973 16.193 6.56396C16.1423 6.73063 16.069 6.88896 15.973 7.03896H19.384C19.8447 7.03896 20.229 7.19296 20.537 7.50096C20.845 7.80896 20.9993 8.1933 21 8.65396V18.384C21 18.8446 20.8457 19.2293 20.537 19.538C20.2283 19.8466 19.8443 20.0006 19.385 20H4.615C4.155 20 3.771 19.846 3.463 19.538C3.155 19.23 3.00067 18.8453 3 18.384V8.65396C3 8.19396 3.15433 7.80963 3.463 7.50096C3.77167 7.1923 4.15567 7.0383 4.615 7.03896M4 14.423H20V8.65296C20 8.49963 19.936 8.35896 19.808 8.23096C19.68 8.10296 19.5387 8.03896 19.384 8.03896H13.554L15.539 10.773L14.746 11.346L11.961 7.55396L9.177 11.346L8.385 10.773L10.358 8.03896H4.615C4.46167 8.03896 4.32067 8.10296 4.192 8.23096C4.06333 8.35896 3.99933 8.49996 4 8.65396V14.423ZM9.654 7.03896C9.93733 7.03896 10.1747 6.94296 10.366 6.75096C10.5573 6.55896 10.6533 6.32163 10.654 6.03896C10.6547 5.7563 10.5587 5.51863 10.366 5.32596C10.1733 5.1333 9.936 5.0373 9.654 5.03796C9.372 5.03863 9.13433 5.13463 8.941 5.32596C8.74767 5.5173 8.652 5.75496 8.654 6.03896C8.656 6.32296 8.75167 6.5603 8.941 6.75096C9.13033 6.94163 9.368 7.03763 9.654 7.03896ZM14.269 7.03896C14.5523 7.03896 14.79 6.94296 14.982 6.75096C15.174 6.55896 15.2697 6.32163 15.269 6.03896C15.2683 5.7563 15.1727 5.51863 14.982 5.32596C14.7913 5.1333 14.5537 5.0373 14.269 5.03796C13.9843 5.03863 13.747 5.13463 13.557 5.32596C13.367 5.5173 13.271 5.75496 13.269 6.03896C13.267 6.32296 13.363 6.5603 13.557 6.75096C13.751 6.94163 13.9883 7.03763 14.269 7.03896Z" fill="black"/>
</svg>
