<svg width="30" height="30" viewBox="0 0 30 30" fill="none" xmlns="http://www.w3.org/2000/svg">
<path d="M21.25 22.5C21.913 22.5 22.5489 22.7634 23.0178 23.2322C23.4866 23.7011 23.75 24.337 23.75 25C23.75 25.663 23.4866 26.2989 23.0178 26.7678C22.5489 27.2366 21.913 27.5 21.25 27.5C20.587 27.5 19.9511 27.2366 19.4822 26.7678C19.0134 26.2989 18.75 25.663 18.75 25C18.75 23.6125 19.8625 22.5 21.25 22.5ZM1.25 2.5H5.3375L6.5125 5H25C25.3315 5 25.6495 5.1317 25.8839 5.36612C26.1183 5.60054 26.25 5.91848 26.25 6.25C26.25 6.4625 26.1875 6.675 26.1 6.875L21.625 14.9625C21.2 15.725 20.375 16.25 19.4375 16.25H10.125L9 18.2875L8.9625 18.4375C8.9625 18.5204 8.99542 18.5999 9.05403 18.6585C9.11263 18.7171 9.19212 18.75 9.275 18.75H23.75V21.25H8.75C8.08696 21.25 7.45107 20.9866 6.98223 20.5178C6.51339 20.0489 6.25 19.413 6.25 18.75C6.25 18.3125 6.3625 17.9 6.55 17.55L8.25 14.4875L3.75 5H1.25V2.5ZM8.75 22.5C9.41304 22.5 10.0489 22.7634 10.5178 23.2322C10.9866 23.7011 11.25 24.337 11.25 25C11.25 25.663 10.9866 26.2989 10.5178 26.7678C10.0489 27.2366 9.41304 27.5 8.75 27.5C8.08696 27.5 7.45107 27.2366 6.98223 26.7678C6.51339 26.2989 6.25 25.663 6.25 25C6.25 23.6125 7.3625 22.5 8.75 22.5ZM20 13.75L23.475 7.5H7.675L10.625 13.75H20Z" fill="black"/>
</svg>
