<svg width="98" height="32" viewBox="0 0 98 32" fill="none" xmlns="http://www.w3.org/2000/svg">
<rect x="0.5" y="0.5" width="44" height="30.7647" rx="4.79412" fill="#1A1A1A" stroke="#333333"/>
<path d="M22.4905 8.31592C22.4905 8.31592 20.409 15.6679 20.586 15.6679C20.763 15.6679 28.824 17.1294 28.824 17.1294L22.4905 8.31592Z" stroke="white" stroke-width="0.5" stroke-linecap="round" stroke-linejoin="round"/>
<path d="M22.4906 8.31617L14.1646 7.07617L20.5861 15.6682L21.6936 20.7612L28.824 17.1297L30.6841 12.7227M30.6841 12.7227L26.1966 13.4732M30.6841 12.7227L32.5001 14.4277H29.9646" stroke="white" stroke-width="0.5" stroke-linecap="round" stroke-linejoin="round"/>
<path d="M21.6935 20.761L21.8705 21.7135L17.8625 24.924L20.586 15.668M28.824 17.1295L28.5585 18.569L22.424 20.389M15.2275 8.49854H13.5L19.022 13.575" stroke="white" stroke-width="0.5" stroke-linecap="round" stroke-linejoin="round"/>
<rect x="53.5" y="0.5" width="44" height="30.7647" rx="4.79412" fill="#1A1A1A" stroke="#333333"/>
<path d="M73.44 7.19922C71.5781 7.70014 69.9084 8.746 68.6452 10.2026C67.3819 11.6592 66.5828 13.4601 66.3503 15.3741C66.1178 17.2881 66.4625 19.2279 67.3403 20.9445C68.2181 22.6612 69.5888 24.0764 71.2766 25.0085C72.9644 25.9406 74.8922 26.3471 76.8127 26.1758C78.7331 26.0045 80.5586 25.2632 82.0547 24.047C83.5509 22.8309 84.6495 21.1954 85.2096 19.3505C85.7696 17.5056 85.7656 15.5353 85.198 13.6927" stroke="white" stroke-width="0.5" stroke-linecap="round" stroke-linejoin="round"/>
<path d="M71.46 16.9465C71.429 14.84 72.742 10.9015 77.2 8.97748L75.3985 5.77148C72.7115 7.08448 69.1085 11.6035 71.4595 16.9465" stroke="white" stroke-width="0.5" stroke-linecap="round" stroke-linejoin="round"/>
<path d="M75.068 10.2046C74.1744 11.5112 73.6681 13.0437 73.6075 14.6256C74.527 12.7301 77.47 9.80157 82.317 10.0871L82.149 6.41357C80.2192 6.47043 78.3588 7.14637 76.8425 8.34157" stroke="white" stroke-width="0.5" stroke-linecap="round" stroke-linejoin="round"/>
<path d="M81.2325 10.0764C80.1174 10.3489 79.0715 10.851 78.1616 11.5507C77.2516 12.2504 76.4977 13.1323 75.948 14.1399C77.6215 12.8599 81.567 11.5674 85.768 14.0009L87.269 10.6439C85.7232 9.91632 84.0002 9.65034 82.307 9.87793" stroke="white" stroke-width="0.5" stroke-linecap="round" stroke-linejoin="round"/>
<path d="M70.7189 14.0349C70.2626 14.9835 70.0729 16.0382 70.1702 17.0863C70.2675 18.1344 70.648 19.1363 71.2711 19.9846C71.8942 20.833 72.7363 21.4959 73.7072 21.9023C74.6782 22.3087 75.7414 22.4433 76.783 22.2917C77.8246 22.1401 78.8054 21.708 79.6202 21.0417C80.435 20.3754 81.0533 19.5 81.4087 18.5092C81.7641 17.5184 81.8432 16.4496 81.6377 15.4173C81.4322 14.385 80.9497 13.428 80.2419 12.6489" stroke="white" stroke-width="0.5" stroke-linecap="round" stroke-linejoin="round"/>
</svg>
