<svg width="48" height="48" viewBox="0 0 48 48" fill="none" xmlns="http://www.w3.org/2000/svg">
<rect width="48" height="48" rx="12" fill="#98042D"/>
<path d="M21 32.25C21 32.5467 20.912 32.8367 20.7472 33.0834C20.5824 33.33 20.3481 33.5223 20.074 33.6358C19.7999 33.7494 19.4983 33.7791 19.2074 33.7212C18.9164 33.6633 18.6491 33.5204 18.4393 33.3107C18.2296 33.1009 18.0867 32.8336 18.0288 32.5426C17.9709 32.2517 18.0006 31.9501 18.1142 31.676C18.2277 31.4019 18.42 31.1676 18.6666 31.0028C18.9133 30.838 19.2033 30.75 19.5 30.75C19.8978 30.75 20.2794 30.908 20.5607 31.1893C20.842 31.4706 21 31.8522 21 32.25ZM29.25 30.75C28.9533 30.75 28.6633 30.838 28.4166 31.0028C28.17 31.1676 27.9777 31.4019 27.8642 31.676C27.7506 31.9501 27.7209 32.2517 27.7788 32.5426C27.8367 32.8336 27.9796 33.1009 28.1893 33.3107C28.3991 33.5204 28.6664 33.6633 28.9574 33.7212C29.2483 33.7791 29.5499 33.7494 29.824 33.6358C30.0981 33.5223 30.3324 33.33 30.4972 33.0834C30.662 32.8367 30.75 32.5467 30.75 32.25C30.75 31.8522 30.592 31.4706 30.3107 31.1893C30.0294 30.908 29.6478 30.75 29.25 30.75ZM33.7172 18.9703L31.0425 27.6619C30.9024 28.1226 30.6175 28.5259 30.2301 28.812C29.8427 29.0981 29.3734 29.2517 28.8919 29.25H19.8816C19.3931 29.2482 18.9184 29.0882 18.5285 28.7939C18.1386 28.4997 17.8545 28.087 17.7188 27.6178L14.3269 15.75H12.75C12.5511 15.75 12.3603 15.671 12.2197 15.5303C12.079 15.3897 12 15.1989 12 15C12 14.8011 12.079 14.6103 12.2197 14.4697C12.3603 14.329 12.5511 14.25 12.75 14.25H14.3269C14.6526 14.2511 14.9692 14.3576 15.2293 14.5537C15.4893 14.7497 15.6789 15.0247 15.7697 15.3375L16.53 18H33C33.1174 18 33.2331 18.0275 33.3379 18.0803C33.4427 18.1331 33.5336 18.2098 33.6034 18.3042C33.6732 18.3986 33.7198 18.508 33.7396 18.6237C33.7593 18.7394 33.7517 18.8581 33.7172 18.9703ZM31.9847 19.5H16.9584L19.1606 27.2062C19.2054 27.3629 19.3 27.5007 19.4301 27.5988C19.5602 27.6969 19.7186 27.75 19.8816 27.75H28.8919C29.0524 27.7501 29.2086 27.6986 29.3377 27.6033C29.4668 27.508 29.5619 27.3737 29.6091 27.2203L31.9847 19.5Z" fill="white"/>
</svg>
