<svg width="40" height="40" viewBox="0 0 40 40" fill="none" xmlns="http://www.w3.org/2000/svg">
<rect width="40" height="40" rx="12" fill="#98042D"/>
<path d="M17 28.25C17 28.5467 16.912 28.8367 16.7472 29.0834C16.5824 29.33 16.3481 29.5223 16.074 29.6358C15.7999 29.7494 15.4983 29.7791 15.2074 29.7212C14.9164 29.6633 14.6491 29.5204 14.4393 29.3107C14.2296 29.1009 14.0867 28.8336 14.0288 28.5426C13.9709 28.2517 14.0006 27.9501 14.1142 27.676C14.2277 27.4019 14.42 27.1676 14.6666 27.0028C14.9133 26.838 15.2033 26.75 15.5 26.75C15.8978 26.75 16.2794 26.908 16.5607 27.1893C16.842 27.4706 17 27.8522 17 28.25ZM25.25 26.75C24.9533 26.75 24.6633 26.838 24.4166 27.0028C24.17 27.1676 23.9777 27.4019 23.8642 27.676C23.7506 27.9501 23.7209 28.2517 23.7788 28.5426C23.8367 28.8336 23.9796 29.1009 24.1893 29.3107C24.3991 29.5204 24.6664 29.6633 24.9574 29.7212C25.2483 29.7791 25.5499 29.7494 25.824 29.6358C26.0981 29.5223 26.3324 29.33 26.4972 29.0834C26.662 28.8367 26.75 28.5467 26.75 28.25C26.75 27.8522 26.592 27.4706 26.3107 27.1893C26.0294 26.908 25.6478 26.75 25.25 26.75ZM29.7172 14.9703L27.0425 23.6619C26.9024 24.1226 26.6175 24.5259 26.2301 24.812C25.8427 25.0981 25.3734 25.2517 24.8919 25.25H15.8816C15.3931 25.2482 14.9184 25.0882 14.5285 24.7939C14.1386 24.4997 13.8545 24.087 13.7188 23.6178L10.3269 11.75H8.75C8.55109 11.75 8.36032 11.671 8.21967 11.5303C8.07902 11.3897 8 11.1989 8 11C8 10.8011 8.07902 10.6103 8.21967 10.4697C8.36032 10.329 8.55109 10.25 8.75 10.25H10.3269C10.6526 10.2511 10.9692 10.3576 11.2293 10.5537C11.4893 10.7497 11.6789 11.0247 11.7697 11.3375L12.53 14H29C29.1174 14 29.2331 14.0275 29.3379 14.0803C29.4427 14.1331 29.5336 14.2098 29.6034 14.3042C29.6732 14.3986 29.7198 14.508 29.7396 14.6237C29.7593 14.7394 29.7517 14.8581 29.7172 14.9703ZM27.9847 15.5H12.9584L15.1606 23.2062C15.2054 23.3629 15.3 23.5007 15.4301 23.5988C15.5602 23.6969 15.7186 23.75 15.8816 23.75H24.8919C25.0524 23.7501 25.2086 23.6986 25.3377 23.6033C25.4668 23.508 25.5619 23.3737 25.6091 23.2203L27.9847 15.5Z" fill="white"/>
</svg>
