<svg width="40" height="40" viewBox="0 0 40 40" fill="none" xmlns="http://www.w3.org/2000/svg">
<path d="M35.98 34.6678L33.6782 8.72697C33.6368 8.21362 33.2063 7.82447 32.6847 7.82447H27.8327C27.8244 3.51066 24.3137 0 19.9999 0C15.6861 0 12.1754 3.51066 12.1672 7.82447H7.31516C6.80181 7.82447 6.37126 8.21362 6.32158 8.72697L4.01978 34.6678C4.01978 34.7009 4.01978 34.7257 4.01978 34.7589C4.01978 37.6485 6.67761 40 9.93988 40H30.0599C33.3222 40 35.98 37.6485 35.98 34.7589C35.98 34.7257 35.98 34.7009 35.98 34.6678ZM19.9999 1.98717C23.2208 1.98717 25.8372 4.6036 25.8455 7.82447H14.1543C14.1626 4.6036 16.779 1.98717 19.9999 1.98717ZM30.0599 38.0046H9.93988C7.78711 38.0046 6.03178 36.5721 6.00694 34.792L8.22594 9.81163H12.1672V13.2975C12.1672 13.8439 12.6143 14.291 13.1607 14.291C13.7072 14.291 14.1543 13.8439 14.1543 13.2975V9.81163H25.8455V13.2975C25.8455 13.8439 26.2926 14.291 26.8391 14.291C27.3855 14.291 27.8327 13.8439 27.8327 13.2975V9.81163H31.7739L33.9929 34.8002C33.968 36.5721 32.2127 38.0046 30.0599 38.0046Z" fill="#1E0E37"/>
<path d="M24.1315 20.6831L18.2693 26.5453L15.8764 24.1524C15.4873 23.7632 14.858 23.7632 14.4689 24.1524C14.0797 24.5415 14.0797 25.1708 14.4689 25.56L17.5655 28.6566C17.756 28.8471 18.0126 28.9464 18.2693 28.9464C18.526 28.9464 18.7744 28.8471 18.9731 28.6566L25.539 22.0907C25.9282 21.7015 25.9282 21.0723 25.539 20.6831C25.1499 20.3022 24.5206 20.3022 24.1315 20.6831Z" fill="#1E0E37"/>
</svg>
