<svg width="90" height="28" viewBox="0 0 90 28" fill="none" xmlns="http://www.w3.org/2000/svg">
<g clip-path="url(#clip0_115_34)">
<path d="M43.7 17.25C43.7 19.044 46.6107 20.5 50.2 20.5C53.7893 20.5 56.7 19.044 56.7 17.25M33.3 10.75C33.3 12.544 36.2107 14 39.8 14C41.2638 14 42.6145 13.7582 43.7 13.35M33.3 15.3C33.3 17.094 36.2107 18.55 39.8 18.55C41.2638 18.55 42.6132 18.3082 43.7 17.9M50.2 15.3C46.6107 15.3 43.7 13.844 43.7 12.05C43.7 10.256 46.6107 8.80005 50.2 8.80005C53.7893 8.80005 56.7 10.256 56.7 12.05C56.7 13.844 53.7893 15.3 50.2 15.3Z" stroke="#1E1E1E" stroke-linecap="round" stroke-linejoin="round"/>
<path d="M33.3 5.55005V19.85C33.3 21.644 36.2107 23.1 39.8 23.1C41.2638 23.1 42.6132 22.8582 43.7 22.45M43.7 22.45V12.05M43.7 22.45C43.7 24.244 46.6107 25.7 50.2 25.7C53.7893 25.7 56.7 24.244 56.7 22.45V12.05M46.3 9.45005V5.55005" stroke="#1E1E1E" stroke-linecap="round" stroke-linejoin="round"/>
<path d="M39.8 8.80005C36.2107 8.80005 33.3 7.34405 33.3 5.55005C33.3 3.75605 36.2107 2.30005 39.8 2.30005C43.3893 2.30005 46.3 3.75605 46.3 5.55005C46.3 7.34405 43.3893 8.80005 39.8 8.80005Z" stroke="#1E1E1E" stroke-linecap="round" stroke-linejoin="round"/>
</g>
<defs>
<clipPath id="clip0_115_34">
<rect width="24" height="24" fill="white" transform="translate(33 2)"/>
</clipPath>
</defs>
</svg>
