<svg width="38" height="28" viewBox="0 0 38 28" fill="none" xmlns="http://www.w3.org/2000/svg">
<path d="M14.5 13.5V16.5M13 15H16M19 5.78198V10.124M21.874 15H24.874M19 10.347C21.005 10.347 22.7 8.45898 24.786 9.13498C27.05 9.86798 28.606 12.548 28.494 18.627C28.472 19.851 28.158 21.205 26.948 21.733C24.151 22.954 22.551 19.405 19.948 19.405H18.051C15.446 19.405 13.838 22.95 11.053 21.733C9.84302 21.205 9.52802 19.851 9.50602 18.626C9.39302 12.548 10.95 9.86798 13.214 9.13498C15.299 8.45898 16.994 10.347 19 10.347Z" stroke="#1E1E1E" stroke-width="1.5" stroke-linecap="round" stroke-linejoin="round"/>
</svg>
