<svg width="83" height="24" viewBox="0 0 83 24" fill="none" xmlns="http://www.w3.org/2000/svg">
<path d="M53.291 2.00986C53.2517 2.02852 53.2179 2.05713 53.193 2.09286C49.8083 6.32286 46.425 10.5529 43.043 14.7829C42.936 14.8759 43.018 15.0709 43.162 15.0479C45.601 15.0509 48.039 15.0479 50.478 15.0489C50.5833 15.0543 50.6883 15.0344 50.7844 14.991C50.8804 14.9475 50.9646 14.8816 51.03 14.7989L53.354 11.8959C53.4603 11.7556 53.5115 11.5813 53.498 11.4059C53.496 8.32886 53.498 5.25286 53.495 2.17586C53.511 2.06586 53.395 1.97086 53.291 2.00986ZM29.576 2.02386C29.499 2.06186 29.502 2.15586 29.5 2.22886C29.5013 5.30352 29.5017 8.37852 29.501 11.4539C29.4944 11.6224 29.5507 11.7875 29.659 11.9169L37.299 21.4669C37.419 21.6189 37.607 21.7169 37.804 21.7139C40.259 21.7139 42.714 21.7169 45.169 21.7139C45.311 21.7339 45.391 21.5399 45.285 21.4489C40.16 15.0339 35.025 8.62386 29.899 2.20786C29.819 2.11386 29.725 1.93586 29.577 2.02386H29.576Z" fill="#1E1E1E"/>
</svg>
