<svg width="19" height="18" viewBox="0 0 19 18" fill="none" xmlns="http://www.w3.org/2000/svg">
<path d="M7.78946 1.00907C8.41648 -0.336504 10.3297 -0.336505 10.9567 1.00907L12.4139 4.13617C12.6685 4.68255 13.1868 5.05909 13.7851 5.13239L17.2094 5.55193C18.6829 5.73246 19.2741 7.55205 18.1882 8.56418L15.6644 10.9164C15.2235 11.3274 15.0255 11.9366 15.1407 12.5283L15.7999 15.9147C16.0835 17.3718 14.5357 18.4964 13.2375 17.7764L10.2205 16.103C9.6934 15.8106 9.05279 15.8106 8.52566 16.103L5.50871 17.7764C4.21053 18.4964 2.66269 17.3718 2.94633 15.9147L3.6055 12.5283C3.72067 11.9366 3.52272 11.3274 3.08176 10.9164L0.558004 8.56418C-0.527952 7.55205 0.0632686 5.73246 1.53675 5.55193L4.9611 5.13239C5.5594 5.05909 6.07766 4.68255 6.33227 4.13617L7.78946 1.00907Z" fill="#98042D"/>
</svg>
