<svg width="19" height="18" viewBox="0 0 19 18" fill="none" xmlns="http://www.w3.org/2000/svg">
<path d="M8.24862 1.22337C8.69392 0.267776 10.0523 0.267778 10.4976 1.22337L11.9553 4.35054C12.2838 5.05496 12.9521 5.54071 13.7236 5.63523L17.1475 6.05456C18.1939 6.18277 18.614 7.47494 17.8428 8.19373L15.3189 10.5455C14.7501 11.0756 14.4948 11.8622 14.6434 12.6254L15.303 16.0116C15.5042 17.0462 14.4051 17.8449 13.4833 17.3339L10.4659 15.6606C9.78602 15.2835 8.96017 15.2835 8.28027 15.6606L5.26288 17.3339C4.34108 17.8449 3.24195 17.0462 3.44315 16.0116L4.1028 12.6254C4.25135 11.8622 3.99607 11.0756 3.42732 10.5455L0.903437 8.19373C0.132216 7.47494 0.552263 6.18276 1.59869 6.05456L5.02255 5.63523C5.79406 5.54071 6.46237 5.05497 6.79086 4.35054L8.24862 1.22337Z" fill="url(#paint0_linear_27_42)" stroke="#98042D"/>
<defs>
<linearGradient id="paint0_linear_27_42" x1="8.48086" y1="9.61189" x2="17.3514" y2="9.61189" gradientUnits="userSpaceOnUse">
<stop offset="0.394791" stop-color="#98042D"/>
<stop offset="0.394891" stop-color="#FFB547" stop-opacity="0"/>
</linearGradient>
</defs>
</svg>
